<svg version="1.1" xmlns="http://www.w3.org/2000/svg" xmlns:xlink="http://www.w3.org/1999/xlink" width="800" height="800"><defs/><g transform="scale(2,2)"><g id="background-0a3586bb"><rect fill="white" stroke="none" x="0" y="0" width="400" height="400" class="dcg-svg-background"/></g><g id="background-images-0a3586bb"/><g id="graphpaper-0a3586bb"><g id="grid-0a3586bb"><g><path fill="none" stroke="rgb(0,0,0)" class="dcg-svg-minor-gridline" paint-order="fill stroke markers" d=" M 12.5 0 L 12.5 400" stroke-opacity="0.5" stroke-miterlimit="10" stroke-dasharray=""/><path fill="none" stroke="rgb(0,0,0)" class="dcg-svg-minor-gridline" paint-order="fill stroke markers" d=" M 39.5 0 L 39.5 400" stroke-opacity="0.5" stroke-miterlimit="10" stroke-dasharray=""/><path fill="none" stroke="rgb(0,0,0)" class="dcg-svg-minor-gridline" paint-order="fill stroke markers" d=" M 66.5 0 L 66.5 400" stroke-opacity="0.5" stroke-miterlimit="10" stroke-dasharray=""/><path fill="none" stroke="rgb(0,0,0)" class="dcg-svg-minor-gridline" paint-order="fill stroke markers" d=" M 92.5 0 L 92.5 400" stroke-opacity="0.5" stroke-miterlimit="10" stroke-dasharray=""/><path fill="none" stroke="rgb(0,0,0)" class="dcg-svg-minor-gridline" paint-order="fill stroke markers" d=" M 119.5 0 L 119.5 400" stroke-opacity="0.5" stroke-miterlimit="10" stroke-dasharray=""/><path fill="none" stroke="rgb(0,0,0)" class="dcg-svg-minor-gridline" paint-order="fill stroke markers" d=" M 146.5 0 L 146.5 400" stroke-opacity="0.5" stroke-miterlimit="10" stroke-dasharray=""/><path fill="none" stroke="rgb(0,0,0)" class="dcg-svg-minor-gridline" paint-order="fill stroke markers" d=" M 172.5 0 L 172.5 400" stroke-opacity="0.5" stroke-miterlimit="10" stroke-dasharray=""/><path fill="none" stroke="rgb(0,0,0)" class="dcg-svg-minor-gridline" paint-order="fill stroke markers" d=" M 226.5 0 L 226.5 400" stroke-opacity="0.5" stroke-miterlimit="10" stroke-dasharray=""/><path fill="none" stroke="rgb(0,0,0)" class="dcg-svg-minor-gridline" paint-order="fill stroke markers" d=" M 252.5 0 L 252.5 400" stroke-opacity="0.5" stroke-miterlimit="10" stroke-dasharray=""/><path fill="none" stroke="rgb(0,0,0)" class="dcg-svg-minor-gridline" paint-order="fill stroke markers" d=" M 279.5 0 L 279.5 400" stroke-opacity="0.5" stroke-miterlimit="10" stroke-dasharray=""/><path fill="none" stroke="rgb(0,0,0)" class="dcg-svg-minor-gridline" paint-order="fill stroke markers" d=" M 306.5 0 L 306.5 400" stroke-opacity="0.5" stroke-miterlimit="10" stroke-dasharray=""/><path fill="none" stroke="rgb(0,0,0)" class="dcg-svg-minor-gridline" paint-order="fill stroke markers" d=" M 332.5 0 L 332.5 400" stroke-opacity="0.5" stroke-miterlimit="10" stroke-dasharray=""/><path fill="none" stroke="rgb(0,0,0)" class="dcg-svg-minor-gridline" paint-order="fill stroke markers" d=" M 359.5 0 L 359.5 400" stroke-opacity="0.5" stroke-miterlimit="10" stroke-dasharray=""/><path fill="none" stroke="rgb(0,0,0)" class="dcg-svg-minor-gridline" paint-order="fill stroke markers" d=" M 386.5 0 L 386.5 400" stroke-opacity="0.5" stroke-miterlimit="10" stroke-dasharray=""/><path fill="none" stroke="rgb(0,0,0)" class="dcg-svg-minor-gridline" paint-order="fill stroke markers" d=" M 0 386.5 L 400 386.5" stroke-opacity="0.5" stroke-miterlimit="10" stroke-dasharray=""/><path fill="none" stroke="rgb(0,0,0)" class="dcg-svg-minor-gridline" paint-order="fill stroke markers" d=" M 0 359.5 L 400 359.5" stroke-opacity="0.5" stroke-miterlimit="10" stroke-dasharray=""/><path fill="none" stroke="rgb(0,0,0)" class="dcg-svg-minor-gridline" paint-order="fill stroke markers" d=" M 0 332.5 L 400 332.5" stroke-opacity="0.5" stroke-miterlimit="10" stroke-dasharray=""/><path fill="none" stroke="rgb(0,0,0)" class="dcg-svg-minor-gridline" paint-order="fill stroke markers" d=" M 0 306.5 L 400 306.5" stroke-opacity="0.5" stroke-miterlimit="10" stroke-dasharray=""/><path fill="none" stroke="rgb(0,0,0)" class="dcg-svg-minor-gridline" paint-order="fill stroke markers" d=" M 0 279.5 L 400 279.5" stroke-opacity="0.5" stroke-miterlimit="10" stroke-dasharray=""/><path fill="none" stroke="rgb(0,0,0)" class="dcg-svg-minor-gridline" paint-order="fill stroke markers" d=" M 0 252.5 L 400 252.5" stroke-opacity="0.5" stroke-miterlimit="10" stroke-dasharray=""/><path fill="none" stroke="rgb(0,0,0)" class="dcg-svg-minor-gridline" paint-order="fill stroke markers" d=" M 0 226.5 L 400 226.5" stroke-opacity="0.5" stroke-miterlimit="10" stroke-dasharray=""/><path fill="none" stroke="rgb(0,0,0)" class="dcg-svg-minor-gridline" paint-order="fill stroke markers" d=" M 0 172.5 L 400 172.5" stroke-opacity="0.5" stroke-miterlimit="10" stroke-dasharray=""/><path fill="none" stroke="rgb(0,0,0)" class="dcg-svg-minor-gridline" paint-order="fill stroke markers" d=" M 0 146.5 L 400 146.5" stroke-opacity="0.5" stroke-miterlimit="10" stroke-dasharray=""/><path fill="none" stroke="rgb(0,0,0)" class="dcg-svg-minor-gridline" paint-order="fill stroke markers" d=" M 0 119.5 L 400 119.5" stroke-opacity="0.5" stroke-miterlimit="10" stroke-dasharray=""/><path fill="none" stroke="rgb(0,0,0)" class="dcg-svg-minor-gridline" paint-order="fill stroke markers" d=" M 0 92.5 L 400 92.5" stroke-opacity="0.5" stroke-miterlimit="10" stroke-dasharray=""/><path fill="none" stroke="rgb(0,0,0)" class="dcg-svg-minor-gridline" paint-order="fill stroke markers" d=" M 0 66.5 L 400 66.5" stroke-opacity="0.5" stroke-miterlimit="10" stroke-dasharray=""/><path fill="none" stroke="rgb(0,0,0)" class="dcg-svg-minor-gridline" paint-order="fill stroke markers" d=" M 0 39.5 L 400 39.5" stroke-opacity="0.5" stroke-miterlimit="10" stroke-dasharray=""/><path fill="none" stroke="rgb(0,0,0)" class="dcg-svg-minor-gridline" paint-order="fill stroke markers" d=" M 0 12.5 L 400 12.5" stroke-opacity="0.5" stroke-miterlimit="10" stroke-dasharray=""/><path fill="none" stroke="rgb(0,0,0)" class="dcg-svg-major-gridline" paint-order="fill stroke markers" d=" M 66.5 0 L 66.5 400" stroke-opacity="1" stroke-miterlimit="10" stroke-dasharray=""/><path fill="none" stroke="rgb(0,0,0)" class="dcg-svg-major-gridline" paint-order="fill stroke markers" d=" M 332.5 0 L 332.5 400" stroke-opacity="1" stroke-miterlimit="10" stroke-dasharray=""/><path fill="none" stroke="rgb(0,0,0)" class="dcg-svg-major-gridline" paint-order="fill stroke markers" d=" M 0 332.5 L 400 332.5" stroke-opacity="1" stroke-miterlimit="10" stroke-dasharray=""/><path fill="none" stroke="rgb(0,0,0)" class="dcg-svg-major-gridline" paint-order="fill stroke markers" d=" M 0 66.5 L 400 66.5" stroke-opacity="1" stroke-miterlimit="10" stroke-dasharray=""/></g></g><g id="axis-0a3586bb"><g id="yaxis-0a3586bb"><title>Y axis</title><path fill="none" stroke="rgb(0,0,0)" class="dcg-svg-axis-line" paint-order="fill stroke markers" d=" M 200 0 L 200 400" stroke-opacity="0.9" stroke-miterlimit="10" stroke-width="2" stroke-dasharray=""/></g><g id="xaxis-0a3586bb"><title>X axis</title><path fill="none" stroke="rgb(0,0,0)" class="dcg-svg-axis-line" paint-order="fill stroke markers" d=" M 0 200 L 400 200" stroke-opacity="0.9" stroke-miterlimit="10" stroke-width="2" stroke-dasharray=""/></g><g><g class="dcg-svg-axis-value"><text fill="none" stroke="#ffffff" font-family="Arial" font-size="20px" font-style="normal" font-weight="normal" text-decoration="normal" x="189.4384765625" y="220.44" text-anchor="middle" stroke-miterlimit="2" stroke-width="3" stroke-dasharray="">0</text><text fill="#000000" stroke="none" font-family="Arial" font-size="20px" font-style="normal" font-weight="normal" text-decoration="normal" x="189.4384765625" y="220.44" text-anchor="middle">0</text></g><g class="dcg-svg-axis-value"><text fill="none" stroke="#ffffff" font-family="Arial" font-size="20px" font-style="normal" font-weight="normal" text-decoration="normal" x="63.33658854166666" y="220.44" text-anchor="middle" stroke-miterlimit="2" stroke-width="3" stroke-dasharray="">-1</text><text fill="#000000" stroke="none" font-family="Arial" font-size="20px" font-style="normal" font-weight="normal" text-decoration="normal" x="63.33658854166666" y="220.44" text-anchor="middle">-1</text></g><g class="dcg-svg-axis-value"><text fill="none" stroke="#ffffff" font-family="Arial" font-size="20px" font-style="normal" font-weight="normal" text-decoration="normal" x="333.33333333333337" y="220.44" text-anchor="middle" stroke-miterlimit="2" stroke-width="3" stroke-dasharray="">1</text><text fill="#000000" stroke="none" font-family="Arial" font-size="20px" font-style="normal" font-weight="normal" text-decoration="normal" x="333.33333333333337" y="220.44" text-anchor="middle">1</text></g><g class="dcg-svg-axis-value"><text fill="none" stroke="#ffffff" font-family="Arial" font-size="20px" font-style="normal" font-weight="normal" text-decoration="normal" x="186.1083984375" y="338.77333333333337" text-anchor="middle" stroke-miterlimit="2" stroke-width="3" stroke-dasharray="">-1</text><text fill="#000000" stroke="none" font-family="Arial" font-size="20px" font-style="normal" font-weight="normal" text-decoration="normal" x="186.1083984375" y="338.77333333333337" text-anchor="middle">-1</text></g><g class="dcg-svg-axis-value"><text fill="none" stroke="#ffffff" font-family="Arial" font-size="20px" font-style="normal" font-weight="normal" text-decoration="normal" x="189.4384765625" y="72.10666666666665" text-anchor="middle" stroke-miterlimit="2" stroke-width="3" stroke-dasharray="">1</text><text fill="#000000" stroke="none" font-family="Arial" font-size="20px" font-style="normal" font-weight="normal" text-decoration="normal" x="189.4384765625" y="72.10666666666665" text-anchor="middle">1</text></g></g></g></g><g id="expressions-0a3586bb"><g id="sketch-0a3586bb"><title>Expression 1</title><path fill="#6042a6" stroke="none" paint-order="stroke fill markers" d="" fill-opacity="0.4"/><g><path fill="none" stroke="#6042a6" class="dcg-svg-curve" paint-order="fill stroke markers" d=" M 199.46768988026056 66.81746636973946 L 199.46768988026056 66.81746636973946 L 199.27592783026438 68.982421875 L 198.78864674972561 72.22614674972561 L 198.01545415857726 76.013671875 L 197.0168628202079 79.96875 L 195.65385432012684 84.52854158993654 L 194.19129032580855 88.79308467419139 L 191.94498286570106 94.55501713429891 L 190.13241303091658 98.72616303091655 L 187.33142600791555 104.578125 L 183.9797741769811 110.88051208849049 L 181.52513760604245 115.125 L 177.10110510077675 122.15625 L 171.85901913020845 129.67151913020842 L 171.375 130.32778347095694 L 164.34375 139.25769750832148 L 159.21575100158014 145.15325100158012 L 154.40773951710537 150.28124999999997 L 150.28125 154.4077297089073 L 143.25 160.9161184073188 L 136.21875 166.83208877159223 L 129.1875 172.21322337505035 L 121.3690345111096 177.6190345111096 L 115.12500000000001 181.5251158344802 L 107.94935419391537 185.58189580608462 L 101.06250000000001 189.05008829122582 L 93.81350067592378 192.25100067592376 L 88.69593624411057 194.22656249999997 L 82.60546875 196.2547755133291 L 77.33203125 197.70259888370538 L 72.89135855115207 198.66723519884792 L 68.73904860873049 199.30392014126951 L 66.16666594234455 199.5 L 69.95092657755289 199.8498546724471 L 74.25585937499999 200.60155369522633 L 78.86468343044622 201.68639811089238 L 83.48591783432946 203.015625 L 88.79308467419146 204.80870967419145 L 94.55501713429894 207.05501713429894 L 101.26693589584195 210.046875 L 108.21932213335913 213.5625 L 115.12500000000001 217.47488416551977 L 122.15625000000001 221.89890031056254 L 130.32778898540994 227.625 L 139.25770316294287 234.65625 L 147.22663444760377 241.6875 L 152.35954644608378 246.64045355391622 L 157.3125 251.77336933023133 L 160.9161235909837 255.75 L 166.83209955756743 262.78125 L 172.2132370133023 269.8125 L 177.10110510077675 276.84375 L 178.40625 278.844636050189 L 182.9710253977911 286.3414746022089 L 185.58189580608465 291.0506458060846 L 189.05009953800482 297.9375 L 191.13893516347696 302.5460300817385 L 193.5516523881454 308.484375 L 195.42136684827747 313.7578125 L 196.86328125 318.47848096448854 L 198.01545415857726 322.986328125 L 198.8180234997355 326.94140625 L 199.32617728746325 330.45703125 L 199.5 332.833336851872 L 199.72407216973565 330.017578125 L 200.2113532502744 326.7738532502744 L 200.98454584142277 322.986328125 L 201.98313717979212 319.03125 L 203.3461456798732 314.4714584100634 L 204.80870967419148 310.20691532580855 L 207.05501713429896 304.44498286570104 L 208.86758696908345 300.2738369690834 L 211.66857399208448 294.421875 L 215.02022582301893 288.11948791150945 L 217.47486239395758 283.875 L 221.89889489922328 276.84375 L 227.14098086979158 269.3284808697915 L 227.62500000000003 268.672216529043 L 234.65625000000003 259.7423024916785 L 239.78424899841988 253.84674899841986 L 244.59226048289466 248.71875 L 248.71875000000003 244.59227029109266 L 255.75 238.08388159268117 L 262.78125 232.16791122840775 L 269.8125 226.78677662494962 L 277.63096548889047 221.38096548889038 L 283.875 217.47488416551977 L 291.0506458060847 213.41810419391535 L 297.9375 209.94991170877415 L 305.18649932407624 206.7489993240762 L 310.30406375588944 204.7734375 L 316.39453125 202.74522448667088 L 321.66796875 201.2974011162946 L 326.10864144884795 200.33276480115205 L 330.2609513912695 199.69607985873046 L 332.83333405765546 199.5 L 329.0490734224471 199.15014532755288 L 324.744140625 198.39844630477364 L 320.1353165695538 197.3136018891076 L 315.5140821656706 195.98437499999997 L 310.2069153258086 194.19129032580852 L 304.4449828657011 191.94498286570104 L 297.7330641041581 188.95312499999997 L 290.7806778666409 185.43749999999997 L 283.875 181.5251158344802 L 276.84375 177.10109968943743 L 268.6722110145901 171.37499999999997 L 259.74229683705715 164.34374999999997 L 251.77336555239626 157.31249999999997 L 246.64045355391625 152.35954644608375 L 241.68750000000003 147.22663066976864 L 238.08387640901634 143.25 L 232.1679004424326 136.21875 L 226.78676298669774 129.1875 L 221.89889489922328 122.15625 L 220.59375000000003 120.15536394981098 L 216.02897460220893 112.65852539779104 L 213.41810419391538 107.94935419391533 L 209.9499004619952 101.0625 L 207.86106483652307 96.45396991826146 L 205.44834761185462 90.515625 L 203.57863315172256 85.2421875 L 202.13671875000003 80.52151903551146 L 200.98454584142277 76.013671875 L 200.18197650026454 72.05859375 L 199.67382271253678 68.54296875 L 199.5 66.16666314812801 L 199.46768988026056 66.81746636973946" stroke-linecap="round" stroke-linejoin="round" stroke-miterlimit="10" stroke-width="5" stroke-dasharray=""/></g></g></g><g id="labels-0a3586bb"/></g></svg>