<svg version="1.1" xmlns="http://www.w3.org/2000/svg" xmlns:xlink="http://www.w3.org/1999/xlink" width="800" height="800"><defs/><g transform="scale(2,2)"><g id="background-f568a59a"><rect fill="white" stroke="none" x="0" y="0" width="400" height="400" class="dcg-svg-background"/></g><g id="background-images-f568a59a"/><g id="graphpaper-f568a59a"><g id="grid-f568a59a"><g><path fill="none" stroke="rgb(0,0,0)" class="dcg-svg-minor-gridline" paint-order="fill stroke markers" d=" M 12.5 0 L 12.5 400" stroke-opacity="0.5" stroke-miterlimit="10" stroke-dasharray=""/><path fill="none" stroke="rgb(0,0,0)" class="dcg-svg-minor-gridline" paint-order="fill stroke markers" d=" M 39.5 0 L 39.5 400" stroke-opacity="0.5" stroke-miterlimit="10" stroke-dasharray=""/><path fill="none" stroke="rgb(0,0,0)" class="dcg-svg-minor-gridline" paint-order="fill stroke markers" d=" M 66.5 0 L 66.5 400" stroke-opacity="0.5" stroke-miterlimit="10" stroke-dasharray=""/><path fill="none" stroke="rgb(0,0,0)" class="dcg-svg-minor-gridline" paint-order="fill stroke markers" d=" M 92.5 0 L 92.5 400" stroke-opacity="0.5" stroke-miterlimit="10" stroke-dasharray=""/><path fill="none" stroke="rgb(0,0,0)" class="dcg-svg-minor-gridline" paint-order="fill stroke markers" d=" M 119.5 0 L 119.5 400" stroke-opacity="0.5" stroke-miterlimit="10" stroke-dasharray=""/><path fill="none" stroke="rgb(0,0,0)" class="dcg-svg-minor-gridline" paint-order="fill stroke markers" d=" M 146.5 0 L 146.5 400" stroke-opacity="0.5" stroke-miterlimit="10" stroke-dasharray=""/><path fill="none" stroke="rgb(0,0,0)" class="dcg-svg-minor-gridline" paint-order="fill stroke markers" d=" M 172.5 0 L 172.5 400" stroke-opacity="0.5" stroke-miterlimit="10" stroke-dasharray=""/><path fill="none" stroke="rgb(0,0,0)" class="dcg-svg-minor-gridline" paint-order="fill stroke markers" d=" M 226.5 0 L 226.5 400" stroke-opacity="0.5" stroke-miterlimit="10" stroke-dasharray=""/><path fill="none" stroke="rgb(0,0,0)" class="dcg-svg-minor-gridline" paint-order="fill stroke markers" d=" M 252.5 0 L 252.5 400" stroke-opacity="0.5" stroke-miterlimit="10" stroke-dasharray=""/><path fill="none" stroke="rgb(0,0,0)" class="dcg-svg-minor-gridline" paint-order="fill stroke markers" d=" M 279.5 0 L 279.5 400" stroke-opacity="0.5" stroke-miterlimit="10" stroke-dasharray=""/><path fill="none" stroke="rgb(0,0,0)" class="dcg-svg-minor-gridline" paint-order="fill stroke markers" d=" M 306.5 0 L 306.5 400" stroke-opacity="0.5" stroke-miterlimit="10" stroke-dasharray=""/><path fill="none" stroke="rgb(0,0,0)" class="dcg-svg-minor-gridline" paint-order="fill stroke markers" d=" M 332.5 0 L 332.5 400" stroke-opacity="0.5" stroke-miterlimit="10" stroke-dasharray=""/><path fill="none" stroke="rgb(0,0,0)" class="dcg-svg-minor-gridline" paint-order="fill stroke markers" d=" M 359.5 0 L 359.5 400" stroke-opacity="0.5" stroke-miterlimit="10" stroke-dasharray=""/><path fill="none" stroke="rgb(0,0,0)" class="dcg-svg-minor-gridline" paint-order="fill stroke markers" d=" M 386.5 0 L 386.5 400" stroke-opacity="0.5" stroke-miterlimit="10" stroke-dasharray=""/><path fill="none" stroke="rgb(0,0,0)" class="dcg-svg-minor-gridline" paint-order="fill stroke markers" d=" M 0 386.5 L 400 386.5" stroke-opacity="0.5" stroke-miterlimit="10" stroke-dasharray=""/><path fill="none" stroke="rgb(0,0,0)" class="dcg-svg-minor-gridline" paint-order="fill stroke markers" d=" M 0 359.5 L 400 359.5" stroke-opacity="0.5" stroke-miterlimit="10" stroke-dasharray=""/><path fill="none" stroke="rgb(0,0,0)" class="dcg-svg-minor-gridline" paint-order="fill stroke markers" d=" M 0 332.5 L 400 332.5" stroke-opacity="0.5" stroke-miterlimit="10" stroke-dasharray=""/><path fill="none" stroke="rgb(0,0,0)" class="dcg-svg-minor-gridline" paint-order="fill stroke markers" d=" M 0 306.5 L 400 306.5" stroke-opacity="0.5" stroke-miterlimit="10" stroke-dasharray=""/><path fill="none" stroke="rgb(0,0,0)" class="dcg-svg-minor-gridline" paint-order="fill stroke markers" d=" M 0 279.5 L 400 279.5" stroke-opacity="0.5" stroke-miterlimit="10" stroke-dasharray=""/><path fill="none" stroke="rgb(0,0,0)" class="dcg-svg-minor-gridline" paint-order="fill stroke markers" d=" M 0 252.5 L 400 252.5" stroke-opacity="0.5" stroke-miterlimit="10" stroke-dasharray=""/><path fill="none" stroke="rgb(0,0,0)" class="dcg-svg-minor-gridline" paint-order="fill stroke markers" d=" M 0 226.5 L 400 226.5" stroke-opacity="0.5" stroke-miterlimit="10" stroke-dasharray=""/><path fill="none" stroke="rgb(0,0,0)" class="dcg-svg-minor-gridline" paint-order="fill stroke markers" d=" M 0 172.5 L 400 172.5" stroke-opacity="0.5" stroke-miterlimit="10" stroke-dasharray=""/><path fill="none" stroke="rgb(0,0,0)" class="dcg-svg-minor-gridline" paint-order="fill stroke markers" d=" M 0 146.5 L 400 146.5" stroke-opacity="0.5" stroke-miterlimit="10" stroke-dasharray=""/><path fill="none" stroke="rgb(0,0,0)" class="dcg-svg-minor-gridline" paint-order="fill stroke markers" d=" M 0 119.5 L 400 119.5" stroke-opacity="0.5" stroke-miterlimit="10" stroke-dasharray=""/><path fill="none" stroke="rgb(0,0,0)" class="dcg-svg-minor-gridline" paint-order="fill stroke markers" d=" M 0 92.5 L 400 92.5" stroke-opacity="0.5" stroke-miterlimit="10" stroke-dasharray=""/><path fill="none" stroke="rgb(0,0,0)" class="dcg-svg-minor-gridline" paint-order="fill stroke markers" d=" M 0 66.5 L 400 66.5" stroke-opacity="0.5" stroke-miterlimit="10" stroke-dasharray=""/><path fill="none" stroke="rgb(0,0,0)" class="dcg-svg-minor-gridline" paint-order="fill stroke markers" d=" M 0 39.5 L 400 39.5" stroke-opacity="0.5" stroke-miterlimit="10" stroke-dasharray=""/><path fill="none" stroke="rgb(0,0,0)" class="dcg-svg-minor-gridline" paint-order="fill stroke markers" d=" M 0 12.5 L 400 12.5" stroke-opacity="0.5" stroke-miterlimit="10" stroke-dasharray=""/><path fill="none" stroke="rgb(0,0,0)" class="dcg-svg-major-gridline" paint-order="fill stroke markers" d=" M 66.5 0 L 66.5 400" stroke-opacity="1" stroke-miterlimit="10" stroke-dasharray=""/><path fill="none" stroke="rgb(0,0,0)" class="dcg-svg-major-gridline" paint-order="fill stroke markers" d=" M 332.5 0 L 332.5 400" stroke-opacity="1" stroke-miterlimit="10" stroke-dasharray=""/><path fill="none" stroke="rgb(0,0,0)" class="dcg-svg-major-gridline" paint-order="fill stroke markers" d=" M 0 332.5 L 400 332.5" stroke-opacity="1" stroke-miterlimit="10" stroke-dasharray=""/><path fill="none" stroke="rgb(0,0,0)" class="dcg-svg-major-gridline" paint-order="fill stroke markers" d=" M 0 66.5 L 400 66.5" stroke-opacity="1" stroke-miterlimit="10" stroke-dasharray=""/></g></g><g id="axis-f568a59a"><g id="yaxis-f568a59a"><title>Y axis</title><path fill="none" stroke="rgb(0,0,0)" class="dcg-svg-axis-line" paint-order="fill stroke markers" d=" M 200 0 L 200 400" stroke-opacity="0.9" stroke-miterlimit="10" stroke-width="2" stroke-dasharray=""/></g><g id="xaxis-f568a59a"><title>X axis</title><path fill="none" stroke="rgb(0,0,0)" class="dcg-svg-axis-line" paint-order="fill stroke markers" d=" M 0 200 L 400 200" stroke-opacity="0.9" stroke-miterlimit="10" stroke-width="2" stroke-dasharray=""/></g><g><g class="dcg-svg-axis-value"><text fill="none" stroke="#ffffff" font-family="Arial" font-size="20px" font-style="normal" font-weight="normal" text-decoration="normal" x="189.4384765625" y="220.44" text-anchor="middle" stroke-miterlimit="2" stroke-width="3" stroke-dasharray="">0</text><text fill="#000000" stroke="none" font-family="Arial" font-size="20px" font-style="normal" font-weight="normal" text-decoration="normal" x="189.4384765625" y="220.44" text-anchor="middle">0</text></g><g class="dcg-svg-axis-value"><text fill="none" stroke="#ffffff" font-family="Arial" font-size="20px" font-style="normal" font-weight="normal" text-decoration="normal" x="63.33658854166666" y="220.44" text-anchor="middle" stroke-miterlimit="2" stroke-width="3" stroke-dasharray="">-1</text><text fill="#000000" stroke="none" font-family="Arial" font-size="20px" font-style="normal" font-weight="normal" text-decoration="normal" x="63.33658854166666" y="220.44" text-anchor="middle">-1</text></g><g class="dcg-svg-axis-value"><text fill="none" stroke="#ffffff" font-family="Arial" font-size="20px" font-style="normal" font-weight="normal" text-decoration="normal" x="333.33333333333337" y="220.44" text-anchor="middle" stroke-miterlimit="2" stroke-width="3" stroke-dasharray="">1</text><text fill="#000000" stroke="none" font-family="Arial" font-size="20px" font-style="normal" font-weight="normal" text-decoration="normal" x="333.33333333333337" y="220.44" text-anchor="middle">1</text></g><g class="dcg-svg-axis-value"><text fill="none" stroke="#ffffff" font-family="Arial" font-size="20px" font-style="normal" font-weight="normal" text-decoration="normal" x="186.1083984375" y="338.77333333333337" text-anchor="middle" stroke-miterlimit="2" stroke-width="3" stroke-dasharray="">-1</text><text fill="#000000" stroke="none" font-family="Arial" font-size="20px" font-style="normal" font-weight="normal" text-decoration="normal" x="186.1083984375" y="338.77333333333337" text-anchor="middle">-1</text></g><g class="dcg-svg-axis-value"><text fill="none" stroke="#ffffff" font-family="Arial" font-size="20px" font-style="normal" font-weight="normal" text-decoration="normal" x="189.4384765625" y="72.10666666666665" text-anchor="middle" stroke-miterlimit="2" stroke-width="3" stroke-dasharray="">1</text><text fill="#000000" stroke="none" font-family="Arial" font-size="20px" font-style="normal" font-weight="normal" text-decoration="normal" x="189.4384765625" y="72.10666666666665" text-anchor="middle">1</text></g></g></g></g><g id="expressions-f568a59a"><g id="sketch-f568a59a"><title>Expression 1</title><path fill="#6042a6" stroke="none" paint-order="stroke fill markers" d="" fill-opacity="0.4"/><path fill="#6042a6" stroke="none" paint-order="stroke fill markers" d="" fill-opacity="0.4"/><g><path fill="none" stroke="#6042a6" class="dcg-svg-curve" paint-order="fill stroke markers" d=" M 66.16666666666667 199.5 L 66.16666666666667 199.5 L 66.296875 205.39111772180397 L 66.6875 211.273598495268 L 67.2734375 216.643918665561 L 68.0546875 221.8586135427741 L 69.03125 226.98968990758675 L 70.203125 232.0591138241223 L 71.5703125 237.0735656270485 L 73.1328125 242.03365374756348 L 74.890625 246.93713144665423 L 76.84375 251.7802267947957 L 78.9921875 256.5582588609451 L 81.43359375 261.45241313288557 L 84.0703125 266.236534382826 L 86.90234375 270.91110267167574 L 89.9296875 275.4744983295719 L 93.25 280.0525622049217 L 96.765625 284.4907405023462 L 100.57421875000001 288.8950087077289 L 104.67578125000001 293.2344403953527 L 109.07031250000001 297.4808623988895 L 113.75781250000001 301.60805580605586 L 118.73828125000001 305.59110501038094 L 124.01171875000001 309.40585594816446 L 129.48046875 312.9682467534775 L 134.94921875 316.1660808366872 L 140.515625 319.0768425893457 L 146.1796875 321.7077004639238 L 151.84375 324.0257387599659 L 157.60546875 326.0805120432073 L 163.3671875 327.84405961561924 L 169.2265625 329.35105605928425 L 175.0859375 330.5791033308661 L 180.9453125 331.5359850554201 L 186.8046875 332.22756615829707 L 192.6640625 332.6579803702124 L 198.5234375 332.82975700668385 L 204.38281250000003 332.7438963700312 L 210.24218750000003 332.3998991176917 L 216.10156250000003 331.79575163374057 L 221.96093750000003 330.927866392173 L 227.82031250000003 329.79097312431173 L 233.58203125000003 328.4038126808195 L 239.34375000000003 326.74092644945364 L 245.10546875000003 324.79133648369526 L 250.76953125000003 322.5821390096185 L 256.3359375 320.1128267899972 L 261.90234375 317.32922079129867 L 267.37109375 314.2662511845555 L 272.7421875 310.9152581471345 L 278.015625 307.26397546785824 L 283.19140625 303.2955986430794 L 288.07421875 299.1613543486387 L 292.6640625 294.88466981792135 L 296.9609375 290.48979854576487 L 300.96484375 286.00238875641446 L 304.67578125 281.450184967637 L 308.09375 276.86391431872664 L 311.31640625 272.1282938744449 L 314.24609375 267.4051673062808 L 316.98046875 262.5564607320935 L 319.421875 257.7796849190363 L 321.66796875 252.91128335171138 L 323.71875 247.95079902556074 L 325.57421875 242.89434461257508 L 327.13671875 238.05704610717962 L 328.50390625 233.20118618118636 L 329.67578125 228.34516863757128 L 330.65234375 223.51750417215771 L 331.43359375 218.7692661507318 L 332.01953125 214.20889577969913 L 332.5078125 208.81126155483892 L 332.703125 205.39111772180397 L 332.83333333333337 199.5" stroke-linecap="round" stroke-linejoin="round" stroke-miterlimit="10" stroke-width="5" stroke-dasharray=""/></g><g><path fill="none" stroke="#6042a6" class="dcg-svg-curve" paint-order="fill stroke markers" d=" M 66.16666666666667 199.5 L 66.16666666666667 199.5 L 66.296875 193.608882278196 L 66.6875 187.72640150473197 L 67.2734375 182.35608133443898 L 68.0546875 177.14138645722588 L 69.03125 172.01031009241322 L 70.203125 166.94088617587767 L 71.5703125 161.92643437295146 L 73.1328125 156.9663462524365 L 74.890625 152.06286855334574 L 76.84375 147.21977320520426 L 78.9921875 142.44174113905484 L 81.43359375 137.54758686711438 L 84.0703125 132.76346561717395 L 86.90234375 128.0888973283242 L 89.9296875 123.52550167042813 L 93.25 118.94743779507832 L 96.765625 114.50925949765377 L 100.57421875000001 110.10499129227105 L 104.67578125000001 105.76555960464731 L 109.07031250000001 101.51913760111046 L 113.75781250000001 97.39194419394414 L 118.73828125000001 93.40889498961906 L 124.01171875000001 89.59414405183554 L 129.48046875 86.03175324652256 L 134.94921875 82.83391916331283 L 140.515625 79.92315741065431 L 146.1796875 77.2922995360762 L 151.84375 74.97426124003408 L 157.60546875 72.9194879567927 L 163.3671875 71.15594038438076 L 169.2265625 69.64894394071575 L 175.0859375 68.42089666913392 L 180.9453125 67.46401494457984 L 186.8046875 66.77243384170293 L 192.6640625 66.34201962978756 L 198.5234375 66.1702429933161 L 204.38281250000003 66.25610362996878 L 210.24218750000003 66.60010088230831 L 216.10156250000003 67.20424836625938 L 221.96093750000003 68.07213360782697 L 227.82031250000003 69.20902687568827 L 233.58203125000003 70.5961873191805 L 239.34375000000003 72.2590735505463 L 245.10546875000003 74.20866351630468 L 250.76953125000003 76.41786099038143 L 256.3359375 78.88717321000274 L 261.90234375 81.67077920870133 L 267.37109375 84.73374881544441 L 272.7421875 88.08474185286548 L 278.015625 91.73602453214176 L 283.19140625 95.70440135692053 L 288.07421875 99.83864565136128 L 292.6640625 104.11533018207865 L 296.9609375 108.51020145423519 L 300.96484375 112.99761124358548 L 304.67578125 117.54981503236291 L 308.09375 122.13608568127336 L 311.31640625 126.87170612555502 L 314.24609375 131.59483269371913 L 316.98046875 136.4435392679065 L 319.421875 141.22031508096364 L 321.66796875 146.0887166482886 L 323.71875 151.04920097443923 L 325.57421875 156.1056553874249 L 327.13671875 160.94295389282036 L 328.50390625 165.7988138188136 L 329.67578125 170.6548313624287 L 330.65234375 175.48249582784226 L 331.43359375 180.23073384926818 L 332.01953125 184.79110422030084 L 332.5078125 190.18873844516105 L 332.703125 193.608882278196 L 332.83333333333337 199.5" stroke-linecap="round" stroke-linejoin="round" stroke-miterlimit="10" stroke-width="5" stroke-dasharray=""/></g></g></g><g id="labels-f568a59a"/></g></svg>