<svg version="1.1" xmlns="http://www.w3.org/2000/svg" xmlns:xlink="http://www.w3.org/1999/xlink" width="800" height="800"><defs/><g transform="scale(2,2)"><g id="background-518793e1"><rect fill="white" stroke="none" x="0" y="0" width="400" height="400" class="dcg-svg-background"/></g><g id="background-images-518793e1"/><g id="graphpaper-518793e1"><g id="grid-518793e1"><g><path fill="none" stroke="rgb(0,0,0)" class="dcg-svg-minor-gridline" paint-order="fill stroke markers" d=" M 12.5 0 L 12.5 400" stroke-opacity="0.5" stroke-miterlimit="10" stroke-dasharray=""/><path fill="none" stroke="rgb(0,0,0)" class="dcg-svg-minor-gridline" paint-order="fill stroke markers" d=" M 39.5 0 L 39.5 400" stroke-opacity="0.5" stroke-miterlimit="10" stroke-dasharray=""/><path fill="none" stroke="rgb(0,0,0)" class="dcg-svg-minor-gridline" paint-order="fill stroke markers" d=" M 66.5 0 L 66.5 400" stroke-opacity="0.5" stroke-miterlimit="10" stroke-dasharray=""/><path fill="none" stroke="rgb(0,0,0)" class="dcg-svg-minor-gridline" paint-order="fill stroke markers" d=" M 92.5 0 L 92.5 400" stroke-opacity="0.5" stroke-miterlimit="10" stroke-dasharray=""/><path fill="none" stroke="rgb(0,0,0)" class="dcg-svg-minor-gridline" paint-order="fill stroke markers" d=" M 119.5 0 L 119.5 400" stroke-opacity="0.5" stroke-miterlimit="10" stroke-dasharray=""/><path fill="none" stroke="rgb(0,0,0)" class="dcg-svg-minor-gridline" paint-order="fill stroke markers" d=" M 146.5 0 L 146.5 400" stroke-opacity="0.5" stroke-miterlimit="10" stroke-dasharray=""/><path fill="none" stroke="rgb(0,0,0)" class="dcg-svg-minor-gridline" paint-order="fill stroke markers" d=" M 172.5 0 L 172.5 400" stroke-opacity="0.5" stroke-miterlimit="10" stroke-dasharray=""/><path fill="none" stroke="rgb(0,0,0)" class="dcg-svg-minor-gridline" paint-order="fill stroke markers" d=" M 226.5 0 L 226.5 400" stroke-opacity="0.5" stroke-miterlimit="10" stroke-dasharray=""/><path fill="none" stroke="rgb(0,0,0)" class="dcg-svg-minor-gridline" paint-order="fill stroke markers" d=" M 252.5 0 L 252.5 400" stroke-opacity="0.5" stroke-miterlimit="10" stroke-dasharray=""/><path fill="none" stroke="rgb(0,0,0)" class="dcg-svg-minor-gridline" paint-order="fill stroke markers" d=" M 279.5 0 L 279.5 400" stroke-opacity="0.5" stroke-miterlimit="10" stroke-dasharray=""/><path fill="none" stroke="rgb(0,0,0)" class="dcg-svg-minor-gridline" paint-order="fill stroke markers" d=" M 306.5 0 L 306.5 400" stroke-opacity="0.5" stroke-miterlimit="10" stroke-dasharray=""/><path fill="none" stroke="rgb(0,0,0)" class="dcg-svg-minor-gridline" paint-order="fill stroke markers" d=" M 332.5 0 L 332.5 400" stroke-opacity="0.5" stroke-miterlimit="10" stroke-dasharray=""/><path fill="none" stroke="rgb(0,0,0)" class="dcg-svg-minor-gridline" paint-order="fill stroke markers" d=" M 359.5 0 L 359.5 400" stroke-opacity="0.5" stroke-miterlimit="10" stroke-dasharray=""/><path fill="none" stroke="rgb(0,0,0)" class="dcg-svg-minor-gridline" paint-order="fill stroke markers" d=" M 386.5 0 L 386.5 400" stroke-opacity="0.5" stroke-miterlimit="10" stroke-dasharray=""/><path fill="none" stroke="rgb(0,0,0)" class="dcg-svg-minor-gridline" paint-order="fill stroke markers" d=" M 0 386.5 L 400 386.5" stroke-opacity="0.5" stroke-miterlimit="10" stroke-dasharray=""/><path fill="none" stroke="rgb(0,0,0)" class="dcg-svg-minor-gridline" paint-order="fill stroke markers" d=" M 0 359.5 L 400 359.5" stroke-opacity="0.5" stroke-miterlimit="10" stroke-dasharray=""/><path fill="none" stroke="rgb(0,0,0)" class="dcg-svg-minor-gridline" paint-order="fill stroke markers" d=" M 0 332.5 L 400 332.5" stroke-opacity="0.5" stroke-miterlimit="10" stroke-dasharray=""/><path fill="none" stroke="rgb(0,0,0)" class="dcg-svg-minor-gridline" paint-order="fill stroke markers" d=" M 0 306.5 L 400 306.5" stroke-opacity="0.5" stroke-miterlimit="10" stroke-dasharray=""/><path fill="none" stroke="rgb(0,0,0)" class="dcg-svg-minor-gridline" paint-order="fill stroke markers" d=" M 0 279.5 L 400 279.5" stroke-opacity="0.5" stroke-miterlimit="10" stroke-dasharray=""/><path fill="none" stroke="rgb(0,0,0)" class="dcg-svg-minor-gridline" paint-order="fill stroke markers" d=" M 0 252.5 L 400 252.5" stroke-opacity="0.5" stroke-miterlimit="10" stroke-dasharray=""/><path fill="none" stroke="rgb(0,0,0)" class="dcg-svg-minor-gridline" paint-order="fill stroke markers" d=" M 0 226.5 L 400 226.5" stroke-opacity="0.5" stroke-miterlimit="10" stroke-dasharray=""/><path fill="none" stroke="rgb(0,0,0)" class="dcg-svg-minor-gridline" paint-order="fill stroke markers" d=" M 0 172.5 L 400 172.5" stroke-opacity="0.5" stroke-miterlimit="10" stroke-dasharray=""/><path fill="none" stroke="rgb(0,0,0)" class="dcg-svg-minor-gridline" paint-order="fill stroke markers" d=" M 0 146.5 L 400 146.5" stroke-opacity="0.5" stroke-miterlimit="10" stroke-dasharray=""/><path fill="none" stroke="rgb(0,0,0)" class="dcg-svg-minor-gridline" paint-order="fill stroke markers" d=" M 0 119.5 L 400 119.5" stroke-opacity="0.5" stroke-miterlimit="10" stroke-dasharray=""/><path fill="none" stroke="rgb(0,0,0)" class="dcg-svg-minor-gridline" paint-order="fill stroke markers" d=" M 0 92.5 L 400 92.5" stroke-opacity="0.5" stroke-miterlimit="10" stroke-dasharray=""/><path fill="none" stroke="rgb(0,0,0)" class="dcg-svg-minor-gridline" paint-order="fill stroke markers" d=" M 0 66.5 L 400 66.5" stroke-opacity="0.5" stroke-miterlimit="10" stroke-dasharray=""/><path fill="none" stroke="rgb(0,0,0)" class="dcg-svg-minor-gridline" paint-order="fill stroke markers" d=" M 0 39.5 L 400 39.5" stroke-opacity="0.5" stroke-miterlimit="10" stroke-dasharray=""/><path fill="none" stroke="rgb(0,0,0)" class="dcg-svg-minor-gridline" paint-order="fill stroke markers" d=" M 0 12.5 L 400 12.5" stroke-opacity="0.5" stroke-miterlimit="10" stroke-dasharray=""/><path fill="none" stroke="rgb(0,0,0)" class="dcg-svg-major-gridline" paint-order="fill stroke markers" d=" M 66.5 0 L 66.5 400" stroke-opacity="1" stroke-miterlimit="10" stroke-dasharray=""/><path fill="none" stroke="rgb(0,0,0)" class="dcg-svg-major-gridline" paint-order="fill stroke markers" d=" M 332.5 0 L 332.5 400" stroke-opacity="1" stroke-miterlimit="10" stroke-dasharray=""/><path fill="none" stroke="rgb(0,0,0)" class="dcg-svg-major-gridline" paint-order="fill stroke markers" d=" M 0 332.5 L 400 332.5" stroke-opacity="1" stroke-miterlimit="10" stroke-dasharray=""/><path fill="none" stroke="rgb(0,0,0)" class="dcg-svg-major-gridline" paint-order="fill stroke markers" d=" M 0 66.5 L 400 66.5" stroke-opacity="1" stroke-miterlimit="10" stroke-dasharray=""/></g></g><g id="axis-518793e1"><g id="yaxis-518793e1"><title>Y axis</title><path fill="none" stroke="rgb(0,0,0)" class="dcg-svg-axis-line" paint-order="fill stroke markers" d=" M 200 0 L 200 400" stroke-opacity="0.9" stroke-miterlimit="10" stroke-width="2" stroke-dasharray=""/></g><g id="xaxis-518793e1"><title>X axis</title><path fill="none" stroke="rgb(0,0,0)" class="dcg-svg-axis-line" paint-order="fill stroke markers" d=" M 0 200 L 400 200" stroke-opacity="0.9" stroke-miterlimit="10" stroke-width="2" stroke-dasharray=""/></g><g><g class="dcg-svg-axis-value"><text fill="none" stroke="#ffffff" font-family="Arial" font-size="20px" font-style="normal" font-weight="normal" text-decoration="normal" x="189.4384765625" y="220.44" text-anchor="middle" stroke-miterlimit="2" stroke-width="3" stroke-dasharray="">0</text><text fill="#000000" stroke="none" font-family="Arial" font-size="20px" font-style="normal" font-weight="normal" text-decoration="normal" x="189.4384765625" y="220.44" text-anchor="middle">0</text></g><g class="dcg-svg-axis-value"><text fill="none" stroke="#ffffff" font-family="Arial" font-size="20px" font-style="normal" font-weight="normal" text-decoration="normal" x="63.33658854166666" y="220.44" text-anchor="middle" stroke-miterlimit="2" stroke-width="3" stroke-dasharray="">-1</text><text fill="#000000" stroke="none" font-family="Arial" font-size="20px" font-style="normal" font-weight="normal" text-decoration="normal" x="63.33658854166666" y="220.44" text-anchor="middle">-1</text></g><g class="dcg-svg-axis-value"><text fill="none" stroke="#ffffff" font-family="Arial" font-size="20px" font-style="normal" font-weight="normal" text-decoration="normal" x="333.33333333333337" y="220.44" text-anchor="middle" stroke-miterlimit="2" stroke-width="3" stroke-dasharray="">1</text><text fill="#000000" stroke="none" font-family="Arial" font-size="20px" font-style="normal" font-weight="normal" text-decoration="normal" x="333.33333333333337" y="220.44" text-anchor="middle">1</text></g><g class="dcg-svg-axis-value"><text fill="none" stroke="#ffffff" font-family="Arial" font-size="20px" font-style="normal" font-weight="normal" text-decoration="normal" x="186.1083984375" y="338.77333333333337" text-anchor="middle" stroke-miterlimit="2" stroke-width="3" stroke-dasharray="">-1</text><text fill="#000000" stroke="none" font-family="Arial" font-size="20px" font-style="normal" font-weight="normal" text-decoration="normal" x="186.1083984375" y="338.77333333333337" text-anchor="middle">-1</text></g><g class="dcg-svg-axis-value"><text fill="none" stroke="#ffffff" font-family="Arial" font-size="20px" font-style="normal" font-weight="normal" text-decoration="normal" x="189.4384765625" y="72.10666666666665" text-anchor="middle" stroke-miterlimit="2" stroke-width="3" stroke-dasharray="">1</text><text fill="#000000" stroke="none" font-family="Arial" font-size="20px" font-style="normal" font-weight="normal" text-decoration="normal" x="189.4384765625" y="72.10666666666665" text-anchor="middle">1</text></g></g></g></g><g id="expressions-518793e1"><g id="sketch-518793e1"><title>Expression 1</title><path fill="#6042a6" stroke="none" paint-order="stroke fill markers" d="" fill-opacity="0.4"/><g><path fill="none" stroke="#6042a6" class="dcg-svg-curve" paint-order="fill stroke markers" d=" M 66.78515625000001 66.23067116608877 L 66.78515625000001 66.23067116608877 L 66.18049523494165 66.18049523494159 L 66.17917470010265 78.48386220010258 L 66.18049523494165 332.81950476505835 L 66.78515625000001 332.76932883391123 L 67.39113779989738 332.82082529989736 L 68.10351562500001 332.76932883391123 L 68.54296875 332.76932883391123 L 69.14895029989736 332.82082529989736 L 69.861328125 332.76932883391123 L 70.30078125000001 332.76932883391123 L 70.90676279989738 332.82082529989736 L 71.61914062500001 332.76932883391123 L 72.05859375000001 332.76932883391123 L 72.66457529989738 332.82082529989736 L 73.37695312500001 332.76932883391123 L 73.81640625000001 332.76932883391123 L 74.42238779989738 332.82082529989736 L 75.13476562500001 332.76932883391123 L 75.57421875000001 332.76932883391123 L 76.18020029989736 332.82082529989736 L 76.89257812500001 332.76932883391123 L 77.33203125 332.76932883391123 L 77.93801279989738 332.82082529989736 L 78.650390625 332.76932883391123 L 79.08984375000001 332.76932883391123 L 79.69582529989738 332.82082529989736 L 80.40820312500001 332.76932883391123 L 80.84765625 332.76932883391123 L 81.45363779989738 332.82082529989736 L 82.166015625 332.76932883391123 L 82.60546875000001 332.76932883391123 L 83.21145029989736 332.82082529989736 L 83.92382812500001 332.76932883391123 L 84.36328125000001 332.76932883391123 L 84.96926279989738 332.82082529989736 L 85.68164062500001 332.76932883391123 L 86.12109375 332.76932883391123 L 86.72707529989738 332.82082529989736 L 87.43945312500001 332.76932883391123 L 87.87890625000001 332.76932883391123 L 88.48488779989738 332.82082529989736 L 89.19726562500001 332.76932883391123 L 89.63671875 332.76932883391123 L 90.24270029989736 332.82082529989736 L 90.955078125 332.76932883391123 L 91.39453125000003 332.76932883391123 L 92.00051279989738 332.82082529989736 L 92.71289062500003 332.76932883391123 L 93.15234375 332.76932883391123 L 93.75832529989738 332.82082529989736 L 94.470703125 332.76932883391123 L 94.91015625000003 332.76932883391123 L 95.51613779989738 332.82082529989736 L 96.22851562500003 332.76932883391123 L 96.66796875000003 332.76932883391123 L 97.27395029989736 332.82082529989736 L 97.98632812500003 332.76932883391123 L 98.42578125 332.76932883391123 L 99.03176279989736 332.82082529989736 L 99.74414062500001 332.76932883391123 L 100.18359375000003 332.76932883391123 L 100.78957529989738 332.82082529989736 L 101.50195312500003 332.76932883391123 L 101.94140625000001 332.76932883391123 L 102.54738779989738 332.82082529989736 L 103.25976562500001 332.76932883391123 L 103.69921875000003 332.76932883391123 L 104.30520029989736 332.82082529989736 L 105.01757812500003 332.76932883391123 L 105.45703125000001 332.76932883391123 L 106.06301279989736 332.82082529989736 L 106.77539062500001 332.76932883391123 L 107.21484375000001 332.76932883391123 L 107.82082529989738 332.82082529989736 L 108.53320312500003 332.76932883391123 L 108.97265625000003 332.76932883391123 L 109.57863779989738 332.82082529989736 L 110.29101562500003 332.76932883391123 L 110.73046875000001 332.76932883391123 L 111.33645029989736 332.82082529989736 L 112.04882812500001 332.76932883391123 L 112.48828125000003 332.76932883391123 L 113.09426279989736 332.82082529989736 L 113.80664062500003 332.76932883391123 L 114.24609375000001 332.76932883391123 L 114.85207529989738 332.82082529989736 L 115.56445312500001 332.76932883391123 L 116.00390625000003 332.76932883391123 L 116.60988779989738 332.82082529989736 L 117.32226562500003 332.76932883391123 L 117.76171875000001 332.76932883391123 L 118.36770029989736 332.82082529989736 L 119.08007812500001 332.76932883391123 L 119.51953125000001 332.76932883391123 L 120.12551279989736 332.82082529989736 L 120.83789062500001 332.76932883391123 L 121.27734375000003 332.76932883391123 L 121.88332529989738 332.82082529989736 L 122.59570312500003 332.76932883391123 L 123.03515625000001 332.76932883391123 L 123.64113779989738 332.82082529989736 L 124.35351562500001 332.76932883391123 L 124.79296875000003 332.76932883391123 L 125.39895029989736 332.82082529989736 L 126.11132812500003 332.76932883391123 L 126.55078125000001 332.76932883391123 L 127.15676279989736 332.82082529989736 L 127.869140625 332.76932883391123 L 128.30859375000003 332.76932883391123 L 128.9145752998974 332.82082529989736 L 129.626953125 332.76932883391123 L 130.06640625 332.76932883391123 L 130.67238779989736 332.82082529989736 L 131.384765625 332.76932883391123 L 131.82421875000003 332.76932883391123 L 132.4302002998974 332.82082529989736 L 133.142578125 332.76932883391123 L 133.58203125 332.76932883391123 L 134.1880127998974 332.82082529989736 L 134.900390625 332.76932883391123 L 135.33984375 332.76932883391123 L 135.9458252998974 332.82082529989736 L 136.658203125 332.76932883391123 L 137.09765625 332.76932883391123 L 137.7036377998974 332.82082529989736 L 138.416015625 332.76932883391123 L 138.85546875 332.76932883391123 L 139.4614502998974 332.82082529989736 L 140.173828125 332.76932883391123 L 140.61328125 332.76932883391123 L 141.2192627998974 332.82082529989736 L 141.931640625 332.76932883391123 L 142.37109375 332.76932883391123 L 142.9770752998974 332.82082529989736 L 143.689453125 332.76932883391123 L 144.12890625 332.76932883391123 L 144.7348877998974 332.82082529989736 L 145.447265625 332.76932883391123 L 145.88671875 332.76932883391123 L 146.4927002998974 332.82082529989736 L 147.205078125 332.76932883391123 L 147.64453125 332.76932883391123 L 148.2505127998974 332.82082529989736 L 148.962890625 332.76932883391123 L 149.40234375 332.76932883391123 L 150.0083252998974 332.82082529989736 L 150.720703125 332.76932883391123 L 151.16015625 332.76932883391123 L 151.7661377998974 332.82082529989736 L 152.478515625 332.76932883391123 L 152.91796875 332.76932883391123 L 153.5239502998974 332.82082529989736 L 154.236328125 332.76932883391123 L 154.67578125 332.76932883391123 L 155.2817627998974 332.82082529989736 L 155.994140625 332.76932883391123 L 156.43359375 332.76932883391123 L 157.0395752998974 332.82082529989736 L 157.751953125 332.76932883391123 L 158.19140625 332.76932883391123 L 158.7973877998974 332.82082529989736 L 159.509765625 332.76932883391123 L 159.94921875 332.76932883391123 L 160.5552002998974 332.82082529989736 L 161.267578125 332.76932883391123 L 161.70703125 332.76932883391123 L 162.3130127998974 332.82082529989736 L 163.025390625 332.76932883391123 L 163.46484375 332.76932883391123 L 164.0708252998974 332.82082529989736 L 164.783203125 332.76932883391123 L 165.22265625 332.76932883391123 L 165.8286377998974 332.82082529989736 L 166.541015625 332.76932883391123 L 166.98046875 332.76932883391123 L 167.5864502998974 332.82082529989736 L 168.298828125 332.76932883391123 L 168.73828125 332.76932883391123 L 169.3442627998974 332.82082529989736 L 170.056640625 332.76932883391123 L 170.49609375 332.76932883391123 L 171.1020752998974 332.82082529989736 L 171.814453125 332.76932883391123 L 172.25390625 332.76932883391123 L 172.8598877998974 332.82082529989736 L 173.572265625 332.76932883391123 L 174.01171875 332.76932883391123 L 174.6177002998974 332.82082529989736 L 175.330078125 332.76932883391123 L 175.76953125 332.76932883391123 L 176.3755127998974 332.82082529989736 L 177.087890625 332.76932883391123 L 177.52734375 332.76932883391123 L 178.1333252998974 332.82082529989736 L 178.845703125 332.76932883391123 L 179.28515625 332.76932883391123 L 179.8911377998974 332.82082529989736 L 180.603515625 332.76932883391123 L 181.04296875 332.76932883391123 L 181.6489502998974 332.82082529989736 L 182.361328125 332.76932883391123 L 182.80078125 332.76932883391123 L 183.4067627998974 332.82082529989736 L 184.119140625 332.76932883391123 L 184.55859375 332.76932883391123 L 185.1645752998974 332.82082529989736 L 185.876953125 332.76932883391123 L 186.31640625 332.76932883391123 L 186.9223877998974 332.82082529989736 L 187.634765625 332.76932883391123 L 188.07421875 332.76932883391123 L 188.6802002998974 332.82082529989736 L 189.392578125 332.76932883391123 L 189.83203125 332.76932883391123 L 190.4380127998974 332.82082529989736 L 191.150390625 332.76932883391123 L 191.58984375 332.76932883391123 L 192.1958252998974 332.82082529989736 L 192.908203125 332.76932883391123 L 193.34765625 332.76932883391123 L 193.9536377998974 332.82082529989736 L 194.666015625 332.76932883391123 L 195.10546875 332.76932883391123 L 195.7114502998974 332.82082529989736 L 196.423828125 332.76932883391123 L 196.86328125 332.76932883391123 L 197.4692627998974 332.82082529989736 L 198.181640625 332.76932883391123 L 198.62109375 332.76932883391123 L 199.2270752998974 332.82082529989736 L 199.93945312500003 332.76932883391123 L 200.37890625000003 332.76932883391123 L 200.9848877998974 332.82082529989736 L 201.69726562500003 332.76932883391123 L 202.13671875000003 332.76932883391123 L 202.7427002998974 332.82082529989736 L 203.45507812500003 332.76932883391123 L 203.89453125000003 332.76932883391123 L 204.5005127998974 332.82082529989736 L 205.21289062500003 332.76932883391123 L 205.65234375000003 332.76932883391123 L 206.2583252998974 332.82082529989736 L 206.97070312500003 332.76932883391123 L 207.41015625000003 332.76932883391123 L 208.0161377998974 332.82082529989736 L 208.72851562500003 332.76932883391123 L 209.16796875000003 332.76932883391123 L 209.7739502998974 332.82082529989736 L 210.48632812500003 332.76932883391123 L 210.92578125000003 332.76932883391123 L 211.5317627998974 332.82082529989736 L 212.24414062500003 332.76932883391123 L 212.68359375000003 332.76932883391123 L 213.2895752998974 332.82082529989736 L 214.00195312500003 332.76932883391123 L 214.44140625000003 332.76932883391123 L 215.0473877998974 332.82082529989736 L 215.75976562500003 332.76932883391123 L 216.19921875000003 332.76932883391123 L 216.8052002998974 332.82082529989736 L 217.51757812500003 332.76932883391123 L 217.95703125000003 332.76932883391123 L 218.5630127998974 332.82082529989736 L 219.27539062500003 332.76932883391123 L 219.71484375000003 332.76932883391123 L 220.3208252998974 332.82082529989736 L 221.03320312500003 332.76932883391123 L 221.47265625000003 332.76932883391123 L 222.0786377998974 332.82082529989736 L 222.79101562500003 332.76932883391123 L 223.23046875000003 332.76932883391123 L 223.8364502998974 332.82082529989736 L 224.54882812500003 332.76932883391123 L 224.98828125000003 332.76932883391123 L 225.5942627998974 332.82082529989736 L 226.30664062500003 332.76932883391123 L 226.74609375000003 332.76932883391123 L 227.3520752998974 332.82082529989736 L 228.06445312500003 332.76932883391123 L 228.50390625000003 332.76932883391123 L 229.1098877998974 332.82082529989736 L 229.82226562500003 332.76932883391123 L 230.26171875000003 332.76932883391123 L 230.8677002998974 332.82082529989736 L 231.58007812500003 332.76932883391123 L 232.01953125000003 332.76932883391123 L 232.6255127998974 332.82082529989736 L 233.33789062500003 332.76932883391123 L 233.77734375000003 332.76932883391123 L 234.3833252998974 332.82082529989736 L 235.09570312500003 332.76932883391123 L 235.53515625000003 332.76932883391123 L 236.1411377998974 332.82082529989736 L 236.85351562500003 332.76932883391123 L 237.29296875000003 332.76932883391123 L 237.8989502998974 332.82082529989736 L 238.61132812500003 332.76932883391123 L 239.05078125000003 332.76932883391123 L 239.6567627998974 332.82082529989736 L 240.36914062500003 332.76932883391123 L 240.80859375000003 332.76932883391123 L 241.4145752998974 332.82082529989736 L 242.12695312500003 332.76932883391123 L 242.56640625000003 332.76932883391123 L 243.1723877998974 332.82082529989736 L 243.88476562500003 332.76932883391123 L 244.32421875000003 332.76932883391123 L 244.9302002998974 332.82082529989736 L 245.64257812500003 332.76932883391123 L 246.08203125000003 332.76932883391123 L 246.6880127998974 332.82082529989736 L 247.40039062500003 332.76932883391123 L 247.83984375000003 332.76932883391123 L 248.4458252998974 332.82082529989736 L 249.15820312500003 332.76932883391123 L 249.59765625000003 332.76932883391123 L 250.2036377998974 332.82082529989736 L 250.91601562500003 332.76932883391123 L 251.35546875000003 332.76932883391123 L 251.9614502998974 332.82082529989736 L 252.67382812500003 332.76932883391123 L 253.11328125000003 332.76932883391123 L 253.7192627998974 332.82082529989736 L 254.43164062500003 332.76932883391123 L 254.87109375000003 332.76932883391123 L 255.4770752998974 332.82082529989736 L 256.189453125 332.76932883391123 L 256.62890625 332.76932883391123 L 257.23488779989736 332.82082529989736 L 257.947265625 332.76932883391123 L 258.38671875 332.76932883391123 L 258.99270029989736 332.82082529989736 L 259.705078125 332.76932883391123 L 260.14453125 332.76932883391123 L 260.75051279989736 332.82082529989736 L 261.462890625 332.76932883391123 L 261.90234375 332.76932883391123 L 262.50832529989736 332.82082529989736 L 263.220703125 332.76932883391123 L 263.66015625 332.76932883391123 L 264.26613779989736 332.82082529989736 L 264.978515625 332.76932883391123 L 265.41796875 332.76932883391123 L 266.02395029989736 332.82082529989736 L 266.736328125 332.76932883391123 L 267.17578125 332.76932883391123 L 267.78176279989736 332.82082529989736 L 268.494140625 332.76932883391123 L 268.93359375 332.76932883391123 L 269.53957529989736 332.82082529989736 L 270.251953125 332.76932883391123 L 270.69140625 332.76932883391123 L 271.29738779989736 332.82082529989736 L 272.009765625 332.76932883391123 L 272.44921875 332.76932883391123 L 273.05520029989736 332.82082529989736 L 273.767578125 332.76932883391123 L 274.20703125 332.76932883391123 L 274.81301279989736 332.82082529989736 L 275.525390625 332.76932883391123 L 275.96484375 332.76932883391123 L 276.57082529989736 332.82082529989736 L 277.283203125 332.76932883391123 L 277.72265625 332.76932883391123 L 278.32863779989736 332.82082529989736 L 279.041015625 332.76932883391123 L 279.48046875 332.76932883391123 L 280.08645029989736 332.82082529989736 L 280.798828125 332.76932883391123 L 281.23828125 332.76932883391123 L 281.84426279989736 332.82082529989736 L 282.556640625 332.76932883391123 L 282.99609375 332.76932883391123 L 283.60207529989736 332.82082529989736 L 284.314453125 332.76932883391123 L 284.75390625 332.76932883391123 L 285.35988779989736 332.82082529989736 L 286.072265625 332.76932883391123 L 286.51171875 332.76932883391123 L 287.11770029989736 332.82082529989736 L 287.830078125 332.76932883391123 L 288.26953125 332.76932883391123 L 288.87551279989736 332.82082529989736 L 289.587890625 332.76932883391123 L 290.02734375 332.76932883391123 L 290.63332529989736 332.82082529989736 L 291.345703125 332.76932883391123 L 291.78515625 332.76932883391123 L 292.39113779989736 332.82082529989736 L 293.103515625 332.76932883391123 L 293.54296875 332.76932883391123 L 294.1489502998973 332.82082529989736 L 294.861328125 332.76932883391123 L 295.30078125 332.76932883391123 L 295.90676279989736 332.82082529989736 L 296.619140625 332.76932883391123 L 297.05859375 332.76932883391123 L 297.66457529989736 332.82082529989736 L 298.376953125 332.76932883391123 L 298.81640625 332.76932883391123 L 299.42238779989736 332.82082529989736 L 300.134765625 332.76932883391123 L 300.57421875 332.76932883391123 L 301.1802002998973 332.82082529989736 L 301.892578125 332.76932883391123 L 302.33203125 332.76932883391123 L 302.9380127998974 332.82082529989736 L 303.650390625 332.76932883391123 L 304.08984375 332.76932883391123 L 304.6958252998974 332.82082529989736 L 305.408203125 332.76932883391123 L 305.84765625 332.76932883391123 L 306.4536377998974 332.82082529989736 L 307.166015625 332.76932883391123 L 307.60546875 332.76932883391123 L 308.2114502998973 332.82082529989736 L 308.923828125 332.76932883391123 L 309.36328125 332.76932883391123 L 309.9692627998974 332.82082529989736 L 310.681640625 332.76932883391123 L 311.12109375 332.76932883391123 L 311.7270752998974 332.82082529989736 L 312.439453125 332.76932883391123 L 312.87890625 332.76932883391123 L 313.4848877998974 332.82082529989736 L 314.197265625 332.76932883391123 L 314.63671875 332.76932883391123 L 315.2427002998973 332.82082529989736 L 315.955078125 332.76932883391123 L 316.39453125 332.76932883391123 L 317.0005127998974 332.82082529989736 L 317.712890625 332.76932883391123 L 318.15234375 332.76932883391123 L 318.7583252998974 332.82082529989736 L 319.470703125 332.76932883391123 L 319.91015625 332.76932883391123 L 320.5161377998974 332.82082529989736 L 321.228515625 332.76932883391123 L 321.66796875 332.76932883391123 L 322.2739502998973 332.82082529989736 L 322.986328125 332.76932883391123 L 323.42578125 332.76932883391123 L 324.0317627998974 332.82082529989736 L 324.744140625 332.76932883391123 L 325.18359375 332.76932883391123 L 325.7895752998974 332.82082529989736 L 326.501953125 332.76932883391123 L 326.94140625 332.76932883391123 L 327.5473877998974 332.82082529989736 L 328.259765625 332.76932883391123 L 328.69921875 332.76932883391123 L 329.3052002998973 332.82082529989736 L 330.017578125 332.76932883391123 L 330.45703125 332.76932883391123 L 331.0630127998974 332.82082529989736 L 331.775390625 332.76932883391123 L 332.21484375 332.76932883391123 L 332.8195047650584 332.81950476505835 L 332.8208252998974 332.48776845010264 L 332.8208252998974 332.48776845010264 L 332.8195047650584 66.18049523494159 L 332.4877684501027 66.17917470010258 L 332.4877684501027 66.17917470010258 L 331.775390625 66.23067116608877 L 331.3359375 66.23067116608877 L 330.72995595010264 66.17917470010258 L 330.017578125 66.23067116608877 L 329.578125 66.23067116608877 L 328.97214345010264 66.17917470010258 L 328.259765625 66.23067116608877 L 327.8203125 66.23067116608877 L 327.21433095010264 66.17917470010258 L 326.501953125 66.23067116608877 L 326.0625 66.23067116608877 L 325.45651845010264 66.17917470010258 L 324.744140625 66.23067116608877 L 324.3046875 66.23067116608877 L 323.69870595010264 66.17917470010258 L 322.986328125 66.23067116608877 L 322.546875 66.23067116608877 L 321.94089345010264 66.17917470010258 L 321.228515625 66.23067116608877 L 320.7890625 66.23067116608877 L 320.18308095010264 66.17917470010258 L 319.470703125 66.23067116608877 L 319.03125 66.23067116608877 L 318.42526845010264 66.17917470010258 L 317.712890625 66.23067116608877 L 317.2734375 66.23067116608877 L 316.66745595010264 66.17917470010258 L 315.955078125 66.23067116608877 L 315.515625 66.23067116608877 L 314.90964345010264 66.17917470010258 L 314.197265625 66.23067116608877 L 313.7578125 66.23067116608877 L 313.15183095010264 66.17917470010258 L 312.439453125 66.23067116608877 L 312 66.23067116608877 L 311.39401845010264 66.17917470010258 L 310.681640625 66.23067116608877 L 310.2421875 66.23067116608877 L 309.63620595010264 66.17917470010258 L 308.923828125 66.23067116608877 L 308.484375 66.23067116608877 L 307.87839345010264 66.17917470010258 L 307.166015625 66.23067116608877 L 306.7265625 66.23067116608877 L 306.12058095010264 66.17917470010258 L 305.408203125 66.23067116608877 L 304.96875 66.23067116608877 L 304.36276845010264 66.17917470010258 L 303.650390625 66.23067116608877 L 303.2109375 66.23067116608877 L 302.60495595010264 66.17917470010258 L 301.892578125 66.23067116608877 L 301.453125 66.23067116608877 L 300.84714345010264 66.17917470010258 L 300.134765625 66.23067116608877 L 299.6953125 66.23067116608877 L 299.08933095010264 66.17917470010258 L 298.376953125 66.23067116608877 L 297.9375 66.23067116608877 L 297.33151845010264 66.17917470010258 L 296.619140625 66.23067116608877 L 296.1796875 66.23067116608877 L 295.57370595010264 66.17917470010258 L 294.861328125 66.23067116608877 L 294.421875 66.23067116608877 L 293.81589345010264 66.17917470010258 L 293.103515625 66.23067116608877 L 292.6640625 66.23067116608877 L 292.05808095010264 66.17917470010258 L 291.345703125 66.23067116608877 L 290.90625 66.23067116608877 L 290.30026845010264 66.17917470010258 L 289.587890625 66.23067116608877 L 289.1484375 66.23067116608877 L 288.54245595010264 66.17917470010258 L 287.830078125 66.23067116608877 L 287.390625 66.23067116608877 L 286.78464345010264 66.17917470010258 L 286.072265625 66.23067116608877 L 285.6328125 66.23067116608877 L 285.02683095010264 66.17917470010258 L 284.314453125 66.23067116608877 L 283.875 66.23067116608877 L 283.26901845010264 66.17917470010258 L 282.556640625 66.23067116608877 L 282.1171875 66.23067116608877 L 281.51120595010264 66.17917470010258 L 280.798828125 66.23067116608877 L 280.359375 66.23067116608877 L 279.75339345010264 66.17917470010258 L 279.041015625 66.23067116608877 L 278.6015625 66.23067116608877 L 277.99558095010264 66.17917470010258 L 277.283203125 66.23067116608877 L 276.84375 66.23067116608877 L 276.23776845010264 66.17917470010258 L 275.525390625 66.23067116608877 L 275.0859375 66.23067116608877 L 274.47995595010264 66.17917470010258 L 273.767578125 66.23067116608877 L 273.328125 66.23067116608877 L 272.72214345010264 66.17917470010258 L 272.009765625 66.23067116608877 L 271.5703125 66.23067116608877 L 270.96433095010264 66.17917470010258 L 270.251953125 66.23067116608877 L 269.8125 66.23067116608877 L 269.20651845010264 66.17917470010258 L 268.494140625 66.23067116608877 L 268.0546875 66.23067116608877 L 267.44870595010264 66.17917470010258 L 266.736328125 66.23067116608877 L 266.296875 66.23067116608877 L 265.69089345010264 66.17917470010258 L 264.978515625 66.23067116608877 L 264.5390625 66.23067116608877 L 263.93308095010264 66.17917470010258 L 263.220703125 66.23067116608877 L 262.78125 66.23067116608877 L 262.17526845010264 66.17917470010258 L 261.462890625 66.23067116608877 L 261.0234375 66.23067116608877 L 260.41745595010264 66.17917470010258 L 259.705078125 66.23067116608877 L 259.265625 66.23067116608877 L 258.65964345010264 66.17917470010258 L 257.947265625 66.23067116608877 L 257.5078125 66.23067116608877 L 256.90183095010264 66.17917470010258 L 256.189453125 66.23067116608877 L 255.75 66.23067116608877 L 255.14401845010264 66.17917470010258 L 254.43164062500003 66.23067116608877 L 253.99218750000003 66.23067116608877 L 253.38620595010264 66.17917470010258 L 252.67382812500003 66.23067116608877 L 252.23437500000003 66.23067116608877 L 251.62839345010264 66.17917470010258 L 250.91601562500003 66.23067116608877 L 250.47656250000003 66.23067116608877 L 249.87058095010264 66.17917470010258 L 249.15820312500003 66.23067116608877 L 248.71875000000003 66.23067116608877 L 248.11276845010264 66.17917470010258 L 247.40039062500003 66.23067116608877 L 246.96093750000003 66.23067116608877 L 246.35495595010264 66.17917470010258 L 245.64257812500003 66.23067116608877 L 245.20312500000003 66.23067116608877 L 244.59714345010264 66.17917470010258 L 243.88476562500003 66.23067116608877 L 243.44531250000003 66.23067116608877 L 242.83933095010264 66.17917470010258 L 242.12695312500003 66.23067116608877 L 241.68750000000003 66.23067116608877 L 241.08151845010264 66.17917470010258 L 240.36914062500003 66.23067116608877 L 239.92968750000003 66.23067116608877 L 239.32370595010264 66.17917470010258 L 238.61132812500003 66.23067116608877 L 238.17187500000003 66.23067116608877 L 237.56589345010264 66.17917470010258 L 236.85351562500003 66.23067116608877 L 236.41406250000003 66.23067116608877 L 235.80808095010264 66.17917470010258 L 235.09570312500003 66.23067116608877 L 234.65625000000003 66.23067116608877 L 234.05026845010264 66.17917470010258 L 233.33789062500003 66.23067116608877 L 232.89843750000003 66.23067116608877 L 232.29245595010264 66.17917470010258 L 231.58007812500003 66.23067116608877 L 231.14062500000003 66.23067116608877 L 230.53464345010264 66.17917470010258 L 229.82226562500003 66.23067116608877 L 229.38281250000003 66.23067116608877 L 228.77683095010264 66.17917470010258 L 228.06445312500003 66.23067116608877 L 227.62500000000003 66.23067116608877 L 227.01901845010264 66.17917470010258 L 226.30664062500003 66.23067116608877 L 225.86718750000003 66.23067116608877 L 225.26120595010264 66.17917470010258 L 224.54882812500003 66.23067116608877 L 224.10937500000003 66.23067116608877 L 223.50339345010264 66.17917470010258 L 222.79101562500003 66.23067116608877 L 222.35156250000003 66.23067116608877 L 221.74558095010264 66.17917470010258 L 221.03320312500003 66.23067116608877 L 220.59375000000003 66.23067116608877 L 219.98776845010264 66.17917470010258 L 219.27539062500003 66.23067116608877 L 218.83593750000003 66.23067116608877 L 218.22995595010264 66.17917470010258 L 217.51757812500003 66.23067116608877 L 217.07812500000003 66.23067116608877 L 216.47214345010264 66.17917470010258 L 215.75976562500003 66.23067116608877 L 215.32031250000003 66.23067116608877 L 214.71433095010264 66.17917470010258 L 214.00195312500003 66.23067116608877 L 213.56250000000003 66.23067116608877 L 212.95651845010264 66.17917470010258 L 212.24414062500003 66.23067116608877 L 211.80468750000003 66.23067116608877 L 211.19870595010264 66.17917470010258 L 210.48632812500003 66.23067116608877 L 210.04687500000003 66.23067116608877 L 209.44089345010264 66.17917470010258 L 208.72851562500003 66.23067116608877 L 208.28906250000003 66.23067116608877 L 207.68308095010264 66.17917470010258 L 206.97070312500003 66.23067116608877 L 206.53125000000003 66.23067116608877 L 205.92526845010264 66.17917470010258 L 205.21289062500003 66.23067116608877 L 204.77343750000003 66.23067116608877 L 204.16745595010264 66.17917470010258 L 203.45507812500003 66.23067116608877 L 203.01562500000003 66.23067116608877 L 202.40964345010264 66.17917470010258 L 201.69726562500003 66.23067116608877 L 201.25781250000003 66.23067116608877 L 200.65183095010264 66.17917470010258 L 199.93945312500003 66.23067116608877 L 199.5 66.23067116608877 L 198.89401845010264 66.17917470010258 L 198.181640625 66.23067116608877 L 197.7421875 66.23067116608877 L 197.13620595010264 66.17917470010258 L 196.423828125 66.23067116608877 L 195.984375 66.23067116608877 L 195.37839345010264 66.17917470010258 L 194.666015625 66.23067116608877 L 194.2265625 66.23067116608877 L 193.62058095010264 66.17917470010258 L 192.908203125 66.23067116608877 L 192.46875 66.23067116608877 L 191.86276845010264 66.17917470010258 L 191.150390625 66.23067116608877 L 190.7109375 66.23067116608877 L 190.10495595010264 66.17917470010258 L 189.392578125 66.23067116608877 L 188.953125 66.23067116608877 L 188.34714345010264 66.17917470010258 L 187.634765625 66.23067116608877 L 187.1953125 66.23067116608877 L 186.58933095010264 66.17917470010258 L 185.876953125 66.23067116608877 L 185.4375 66.23067116608877 L 184.83151845010264 66.17917470010258 L 184.119140625 66.23067116608877 L 183.6796875 66.23067116608877 L 183.07370595010264 66.17917470010258 L 182.361328125 66.23067116608877 L 181.921875 66.23067116608877 L 181.31589345010264 66.17917470010258 L 180.603515625 66.23067116608877 L 180.1640625 66.23067116608877 L 179.55808095010264 66.17917470010258 L 178.845703125 66.23067116608877 L 178.40625 66.23067116608877 L 177.80026845010264 66.17917470010258 L 177.087890625 66.23067116608877 L 176.6484375 66.23067116608877 L 176.04245595010264 66.17917470010258 L 175.330078125 66.23067116608877 L 174.890625 66.23067116608877 L 174.28464345010264 66.17917470010258 L 173.572265625 66.23067116608877 L 173.1328125 66.23067116608877 L 172.52683095010264 66.17917470010258 L 171.814453125 66.23067116608877 L 171.375 66.23067116608877 L 170.76901845010264 66.17917470010258 L 170.056640625 66.23067116608877 L 169.6171875 66.23067116608877 L 169.01120595010264 66.17917470010258 L 168.298828125 66.23067116608877 L 167.859375 66.23067116608877 L 167.25339345010264 66.17917470010258 L 166.541015625 66.23067116608877 L 166.1015625 66.23067116608877 L 165.49558095010264 66.17917470010258 L 164.783203125 66.23067116608877 L 164.34375 66.23067116608877 L 163.73776845010264 66.17917470010258 L 163.025390625 66.23067116608877 L 162.5859375 66.23067116608877 L 161.97995595010264 66.17917470010258 L 161.267578125 66.23067116608877 L 160.828125 66.23067116608877 L 160.22214345010264 66.17917470010258 L 159.509765625 66.23067116608877 L 159.0703125 66.23067116608877 L 158.46433095010264 66.17917470010258 L 157.751953125 66.23067116608877 L 157.3125 66.23067116608877 L 156.70651845010264 66.17917470010258 L 155.994140625 66.23067116608877 L 155.5546875 66.23067116608877 L 154.94870595010264 66.17917470010258 L 154.236328125 66.23067116608877 L 153.796875 66.23067116608877 L 153.19089345010264 66.17917470010258 L 152.478515625 66.23067116608877 L 152.0390625 66.23067116608877 L 151.43308095010264 66.17917470010258 L 150.720703125 66.23067116608877 L 150.28125 66.23067116608877 L 149.67526845010264 66.17917470010258 L 148.962890625 66.23067116608877 L 148.5234375 66.23067116608877 L 147.91745595010264 66.17917470010258 L 147.205078125 66.23067116608877 L 146.765625 66.23067116608877 L 146.15964345010264 66.17917470010258 L 145.447265625 66.23067116608877 L 145.0078125 66.23067116608877 L 144.40183095010264 66.17917470010258 L 143.689453125 66.23067116608877 L 143.25 66.23067116608877 L 142.64401845010264 66.17917470010258 L 141.931640625 66.23067116608877 L 141.4921875 66.23067116608877 L 140.88620595010264 66.17917470010258 L 140.173828125 66.23067116608877 L 139.734375 66.23067116608877 L 139.12839345010264 66.17917470010258 L 138.416015625 66.23067116608877 L 137.9765625 66.23067116608877 L 137.37058095010264 66.17917470010258 L 136.658203125 66.23067116608877 L 136.21875 66.23067116608877 L 135.61276845010266 66.17917470010258 L 134.900390625 66.23067116608877 L 134.4609375 66.23067116608877 L 133.85495595010264 66.17917470010258 L 133.142578125 66.23067116608877 L 132.703125 66.23067116608877 L 132.09714345010266 66.17917470010258 L 131.384765625 66.23067116608877 L 130.9453125 66.23067116608877 L 130.33933095010266 66.17917470010258 L 129.626953125 66.23067116608877 L 129.1875 66.23067116608877 L 128.58151845010266 66.17917470010258 L 127.869140625 66.23067116608877 L 127.42968750000003 66.23067116608877 L 126.82370595010265 66.17917470010258 L 126.11132812500003 66.23067116608877 L 125.67187500000001 66.23067116608877 L 125.06589345010265 66.17917470010258 L 124.35351562500001 66.23067116608877 L 123.91406250000001 66.23067116608877 L 123.30808095010266 66.17917470010258 L 122.59570312500003 66.23067116608877 L 122.15625000000003 66.23067116608877 L 121.55026845010265 66.17917470010258 L 120.83789062500001 66.23067116608877 L 120.39843750000001 66.23067116608877 L 119.79245595010265 66.17917470010258 L 119.08007812500001 66.23067116608877 L 118.64062500000003 66.23067116608877 L 118.03464345010265 66.17917470010258 L 117.32226562500003 66.23067116608877 L 116.88281250000001 66.23067116608877 L 116.27683095010266 66.17917470010258 L 115.56445312500001 66.23067116608877 L 115.12500000000003 66.23067116608877 L 114.51901845010265 66.17917470010258 L 113.80664062500003 66.23067116608877 L 113.36718750000001 66.23067116608877 L 112.76120595010265 66.17917470010258 L 112.04882812500001 66.23067116608877 L 111.60937500000001 66.23067116608877 L 111.00339345010265 66.17917470010258 L 110.29101562500003 66.23067116608877 L 109.85156250000003 66.23067116608877 L 109.24558095010266 66.17917470010258 L 108.53320312500003 66.23067116608877 L 108.09375000000001 66.23067116608877 L 107.48776845010265 66.17917470010258 L 106.77539062500001 66.23067116608877 L 106.33593750000003 66.23067116608877 L 105.72995595010265 66.17917470010258 L 105.01757812500003 66.23067116608877 L 104.57812500000001 66.23067116608877 L 103.97214345010265 66.17917470010258 L 103.25976562500001 66.23067116608877 L 102.82031250000003 66.23067116608877 L 102.21433095010266 66.17917470010258 L 101.50195312500003 66.23067116608877 L 101.06250000000003 66.23067116608877 L 100.45651845010265 66.17917470010258 L 99.74414062500001 66.23067116608877 L 99.3046875 66.23067116608877 L 98.69870595010265 66.17917470010258 L 97.98632812500003 66.23067116608877 L 97.54687500000003 66.23067116608877 L 96.94089345010265 66.17917470010258 L 96.22851562500003 66.23067116608877 L 95.7890625 66.23067116608877 L 95.18308095010266 66.17917470010258 L 94.470703125 66.23067116608877 L 94.03125000000003 66.23067116608877 L 93.42526845010265 66.17917470010258 L 92.71289062500003 66.23067116608877 L 92.2734375 66.23067116608877 L 91.66745595010265 66.17917470010258 L 90.955078125 66.23067116608877 L 90.51562500000001 66.23067116608877 L 89.90964345010265 66.17917470010258 L 89.19726562500001 66.23067116608877 L 88.75781250000001 66.23067116608877 L 88.15183095010266 66.17917470010258 L 87.43945312500001 66.23067116608877 L 87 66.23067116608877 L 86.39401845010265 66.17917470010258 L 85.68164062500001 66.23067116608877 L 85.24218750000001 66.23067116608877 L 84.63620595010265 66.17917470010258 L 83.92382812500001 66.23067116608877 L 83.484375 66.23067116608877 L 82.87839345010265 66.17917470010258 L 82.166015625 66.23067116608877 L 81.72656250000001 66.23067116608877 L 81.12058095010266 66.17917470010258 L 80.40820312500001 66.23067116608877 L 79.96875 66.23067116608877 L 79.36276845010265 66.17917470010258 L 78.650390625 66.23067116608877 L 78.21093750000001 66.23067116608877 L 77.60495595010265 66.17917470010258 L 76.89257812500001 66.23067116608877 L 76.45312500000001 66.23067116608877 L 75.84714345010265 66.17917470010258 L 75.13476562500001 66.23067116608877 L 74.6953125 66.23067116608877 L 74.08933095010266 66.17917470010258 L 73.37695312500001 66.23067116608877 L 72.93750000000001 66.23067116608877 L 72.33151845010266 66.17917470010258 L 71.61914062500001 66.23067116608877 L 71.1796875 66.23067116608877 L 70.57370595010265 66.17917470010258 L 69.861328125 66.23067116608877 L 69.42187500000001 66.23067116608877 L 68.81589345010265 66.17917470010258 L 68.10351562500001 66.23067116608877 L 67.66406250000001 66.23067116608877 L 67.05808095010266 66.17917470010258 L 66.78515625000001 66.23067116608877" stroke-linecap="round" stroke-linejoin="round" stroke-miterlimit="10" stroke-width="5" stroke-dasharray=""/></g></g></g><g id="labels-518793e1"/></g></svg>